{
  "accessors": [
    {
      "bufferView": 2,
      "componentType": 5126,
      "count": 12183,
      "max": [
        354.22198486328125,
        -281.4289855957031,
        6.878170013427734
      ],
      "min": [
        344.88299560546875,
        -301.572998046875,
        1.5895500183105469
      ],
      "type": "VEC3"
    },
    {
      "bufferView": 2,
      "byteOffset": 146196,
      "componentType": 5126,
      "count": 12183,
      "max": [
        1.0,
        1.0,
        1.0
      ],
      "min": [
        -1.0,
        -1.0,
        -1.0
      ],
      "type": "VEC3"
    },
    {
      "bufferView": 1,
      "componentType": 5126,
      "count": 12183,
      "max": [
        2.0332000255584717,
        0.9970700144767761
      ],
      "min": [
        -1.344730019569397,
        0.001588999992236495
      ],
      "type": "VEC2"
    },
    {
      "bufferView": 0,
      "componentType": 5125,
      "count": 43203,
      "type": "SCALAR"
    },
    {
      "bufferView": 2,
      "byteOffset": 292392,
      "componentType": 5126,
      "count": 6436,
      "max": [
        353.7080078125,
        -281.8370056152344,
        6.769859790802002
      ],
      "min": [
        345.3970031738281,
        -296.76300048828125,
        2.2695000171661377
      ],
      "type": "VEC3"
    },
    {
      "bufferView": 2,
      "byteOffset": 369624,
      "componentType": 5126,
      "count": 6436,
      "max": [
        0.9999690055847168,
        0.9997212290763855,
        0.9999690055847168
      ],
      "min": [
        -0.9999690055847168,
        -0.9998451471328735,
        -0.9999690055847168
      ],
      "type": "VEC3"
    },
    {
      "bufferView": 1,
      "byteOffset": 97464,
      "componentType": 5126,
      "count": 6436,
      "max": [
        202.3780059814453,
        235.6719970703125
      ],
      "min": [
        -262.24700927734375,
        -383.8280029296875
      ],
      "type": "VEC2"
    },
    {
      "bufferView": 1,
      "byteOffset": 148952,
      "componentType": 5126,
      "count": 6436,
      "max": [
        202.3780059814453,
        235.6719970703125
      ],
      "min": [
        -262.24700927734375,
        -383.8280029296875
      ],
      "type": "VEC2"
    },
    {
      "bufferView": 0,
      "byteOffset": 172812,
      "componentType": 5125,
      "count": 26685,
      "type": "SCALAR"
    },
    {
      "bufferView": 2,
      "byteOffset": 446856,
      "componentType": 5126,
      "count": 42726,
      "max": [
        353.4460144042969,
        -284.7439880371094,
        6.526169776916504
      ],
      "min": [
        345.65899658203125,
        -296.2330017089844,
        1.5558899641036987
      ],
      "type": "VEC3"
    },
    {
      "bufferView": 2,
      "byteOffset": 959568,
      "componentType": 5126,
      "count": 42726,
      "max": [
        1.0,
        1.0,
        1.0
      ],
      "min": [
        -1.0,
        -1.0,
        -1.0
      ],
      "type": "VEC3"
    },
    {
      "bufferView": 1,
      "byteOffset": 200440,
      "componentType": 5126,
      "count": 42726,
      "max": [
        0.9311519861221313,
        0.9033200144767761
      ],
      "min": [
        -0.0,
        0.0
      ],
      "type": "VEC2"
    },
    {
      "bufferView": 1,
      "byteOffset": 542248,
      "componentType": 5126,
      "count": 42726,
      "max": [
        0.9311519861221313,
        0.9033200144767761
      ],
      "min": [
        -0.0,
        0.0
      ],
      "type": "VEC2"
    },
    {
      "bufferView": 0,
      "byteOffset": 279552,
      "componentType": 5125,
      "count": 156576,
      "type": "SCALAR"
    },
    {
      "bufferView": 2,
      "byteOffset": 1472280,
      "componentType": 5126,
      "count": 348,
      "max": [
        353.1059875488281,
        -288.822998046875,
        6.768459796905518
      ],
      "min": [
        345.9989929199219,
        -293.8580017089844,
        4.9500298500061035
      ],
      "type": "VEC3"
    },
    {
      "bufferView": 2,
      "byteOffset": 1476456,
      "componentType": 5126,
      "count": 348,
      "max": [
        0.8895432353019714,
        0.17362135648727417,
        0.9999690055847168
      ],
      "min": [
        -0.8895432353019714,
        -0.22890016436576843,
        0.45650896430015564
      ],
      "type": "VEC3"
    },
    {
      "bufferView": 1,
      "byteOffset": 884056,
      "componentType": 5126,
      "count": 348,
      "max": [
        0.9804689884185791,
        0.5449219942092896
      ],
      "min": [
        0.9560549855232239,
        0.5278319716453552
      ],
      "type": "VEC2"
    },
    {
      "bufferView": 0,
      "byteOffset": 905856,
      "componentType": 5125,
      "count": 1260,
      "type": "SCALAR"
    },
    {
      "bufferView": 2,
      "byteOffset": 1480632,
      "componentType": 5126,
      "count": 1777,
      "max": [
        354.17401123046875,
        -283.1990051269531,
        6.76846981048584
      ],
      "min": [
        344.9309997558594,
        -299.3179931640625,
        1.440750002861023
      ],
      "type": "VEC3"
    },
    {
      "bufferView": 2,
      "byteOffset": 1501956,
      "componentType": 5126,
      "count": 1777,
      "max": [
        0.9999690055847168,
        0.9995044469833374,
        1.0
      ],
      "min": [
        -0.9999690055847168,
        -0.9993805885314941,
        -1.0
      ],
      "type": "VEC3"
    },
    {
      "bufferView": 1,
      "byteOffset": 886840,
      "componentType": 5126,
      "count": 1777,
      "max": [
        0.0,
        1.0
      ],
      "min": [
        0.0,
        0.0
      ],
      "type": "VEC2"
    },
    {
      "bufferView": 1,
      "byteOffset": 901056,
      "componentType": 5126,
      "count": 1777,
      "max": [
        0.0,
        1.0
      ],
      "min": [
        0.0,
        0.0
      ],
      "type": "VEC2"
    },
    {
      "bufferView": 0,
      "byteOffset": 910896,
      "componentType": 5125,
      "count": 5400,
      "type": "SCALAR"
    },
    {
      "bufferView": 2,
      "byteOffset": 1523280,
      "componentType": 5126,
      "count": 42993,
      "max": [
        354.2239990234375,
        -281.5849914550781,
        8.307100296020508
      ],
      "min": [
        344.8810119628906,
        -301.0849914550781,
        1.4416099786758423
      ],
      "type": "VEC3"
    },
    {
      "bufferView": 2,
      "byteOffset": 2039196,
      "componentType": 5126,
      "count": 42993,
      "max": [
        1.0,
        1.0,
        1.0
      ],
      "min": [
        -1.0,
        -1.0,
        -1.0
      ],
      "type": "VEC3"
    },
    {
      "bufferView": 1,
      "byteOffset": 915272,
      "componentType": 5126,
      "count": 42993,
      "max": [
        0.9746090173721313,
        0.9697269797325134
      ],
      "min": [
        0.0,
        0.0
      ],
      "type": "VEC2"
    },
    {
      "bufferView": 1,
      "byteOffset": 1259216,
      "componentType": 5126,
      "count": 42993,
      "max": [
        0.9746090173721313,
        0.9697269797325134
      ],
      "min": [
        0.0,
        0.0
      ],
      "type": "VEC2"
    },
    {
      "bufferView": 0,
      "byteOffset": 932496,
      "componentType": 5125,
      "count": 142944,
      "type": "SCALAR"
    },
    {
      "bufferView": 2,
      "byteOffset": 2555112,
      "componentType": 5126,
      "count": 10209,
      "max": [
        354.17401123046875,
        -281.68499755859375,
        6.270569801330566
      ],
      "min": [
        344.9309997558594,
        -302.1189880371094,
        1.4407399892807007
      ],
      "type": "VEC3"
    },
    {
      "bufferView": 2,
      "byteOffset": 2677620,
      "componentType": 5126,
      "count": 10209,
      "max": [
        1.0,
        1.0,
        1.0
      ],
      "min": [
        -1.0,
        -0.9999690055847168,
        -1.0
      ],
      "type": "VEC3"
    },
    {
      "bufferView": 1,
      "byteOffset": 1603160,
      "componentType": 5126,
      "count": 10209,
      "max": [
        21.765600204467773,
        53.0
      ],
      "min": [
        -277.25,
        -53.75
      ],
      "type": "VEC2"
    },
    {
      "bufferView": 1,
      "byteOffset": 1684832,
      "componentType": 5126,
      "count": 10209,
      "max": [
        21.765600204467773,
        53.0
      ],
      "min": [
        -277.25,
        -53.75
      ],
      "type": "VEC2"
    },
    {
      "bufferView": 0,
      "byteOffset": 1504272,
      "componentType": 5125,
      "count": 42243,
      "type": "SCALAR"
    },
    {
      "bufferView": 2,
      "byteOffset": 2800128,
      "componentType": 5126,
      "count": 17281,
      "max": [
        354.239013671875,
        -281.2879943847656,
        6.653779983520508
      ],
      "min": [
        344.8659973144531,
        -302.1189880371094,
        1.659440040588379
      ],
      "type": "VEC3"
    },
    {
      "bufferView": 2,
      "byteOffset": 3007500,
      "componentType": 5126,
      "count": 17281,
      "max": [
        1.0,
        0.9999690055847168,
        1.0
      ],
      "min": [
        -1.0,
        -1.0,
        -1.0
      ],
      "type": "VEC3"
    },
    {
      "bufferView": 1,
      "byteOffset": 1766504,
      "componentType": 5126,
      "count": 17281,
      "max": [
        1.0166000127792358,
        0.9951170086860657
      ],
      "min": [
        0.0012000000569969416,
        0.002693000016734004
      ],
      "type": "VEC2"
    },
    {
      "bufferView": 1,
      "byteOffset": 1904752,
      "componentType": 5126,
      "count": 17281,
      "max": [
        1.0166000127792358,
        0.9951170086860657
      ],
      "min": [
        0.0012000000569969416,
        0.002693000016734004
      ],
      "type": "VEC2"
    },
    {
      "bufferView": 0,
      "byteOffset": 1673244,
      "componentType": 5125,
      "count": 72126,
      "type": "SCALAR"
    },
    {
      "bufferView": 2,
      "byteOffset": 3214872,
      "componentType": 5126,
      "count": 110,
      "max": [
        352.7760009765625,
        -293.80999755859375,
        5.918610095977783
      ],
      "min": [
        346.3280029296875,
        -296.7699890136719,
        4.881589889526367
      ],
      "type": "VEC3"
    },
    {
      "bufferView": 2,
      "byteOffset": 3216192,
      "componentType": 5126,
      "count": 110,
      "max": [
        0.7377825379371643,
        -0.26634183526039124,
        0.8814800977706909
      ],
      "min": [
        -0.7377825379371643,
        -0.5271668434143066,
        0.6200514435768127
      ],
      "type": "VEC3"
    },
    {
      "bufferView": 1,
      "byteOffset": 2043000,
      "componentType": 5126,
      "count": 110,
      "max": [
        0.9794920086860657,
        0.5278319716453552
      ],
      "min": [
        0.9575200080871582,
        0.5175780057907104
      ],
      "type": "VEC2"
    },
    {
      "bufferView": 0,
      "byteOffset": 1961748,
      "componentType": 5125,
      "count": 444,
      "type": "SCALAR"
    },
    {
      "bufferView": 2,
      "byteOffset": 3217512,
      "componentType": 5126,
      "count": 176,
      "max": [
        351.67999267578125,
        -284.04901123046875,
        6.457600116729736
      ],
      "min": [
        347.42498779296875,
        -288.3479919433594,
        5.127920150756836
      ],
      "type": "VEC3"
    },
    {
      "bufferView": 2,
      "byteOffset": 3219624,
      "componentType": 5126,
      "count": 176,
      "max": [
        0.14173202216625214,
        0.3537064492702484,
        0.9817899465560913
      ],
      "min": [
        -0.14173202216625214,
        0.18850329518318176,
        0.9343181252479553
      ],
      "type": "VEC3"
    },
    {
      "bufferView": 1,
      "byteOffset": 2043880,
      "componentType": 5126,
      "count": 176,
      "max": [
        0.9755859971046448,
        0.5610349774360657
      ],
      "min": [
        0.9609379768371582,
        0.5463870167732239
      ],
      "type": "VEC2"
    },
    {
      "bufferView": 0,
      "byteOffset": 1963524,
      "componentType": 5125,
      "count": 582,
      "type": "SCALAR"
    },
    {
      "bufferView": 2,
      "byteOffset": 3221736,
      "componentType": 5126,
      "count": 393,
      "max": [
        353.59100341796875,
        -282.0539855957031,
        4.759860038757324
      ],
      "min": [
        345.5140075683594,
        -283.7300109863281,
        4.186679840087891
      ],
      "type": "VEC3"
    },
    {
      "bufferView": 2,
      "byteOffset": 3226452,
      "componentType": 5126,
      "count": 393,
      "max": [
        0.9790221452713013,
        0.9998760223388672,
        0.8894054293632507
      ],
      "min": [
        -0.9790221452713013,
        0.031527385115623474,
        -0.9762570858001709
      ],
      "type": "VEC3"
    },
    {
      "bufferView": 1,
      "byteOffset": 2045288,
      "componentType": 5126,
      "count": 393,
      "max": [
        0.9858400225639343,
        0.5488280057907104
      ],
      "min": [
        0.9814450144767761,
        0.5439450144767761
      ],
      "type": "VEC2"
    },
    {
      "bufferView": 1,
      "byteOffset": 2048432,
      "componentType": 5126,
      "count": 393,
      "max": [
        0.9858400225639343,
        0.5488280057907104
      ],
      "min": [
        0.9814450144767761,
        0.5439450144767761
      ],
      "type": "VEC2"
    },
    {
      "bufferView": 0,
      "byteOffset": 1965852,
      "componentType": 5125,
      "count": 1956,
      "type": "SCALAR"
    },
    {
      "bufferView": 2,
      "byteOffset": 3231168,
      "componentType": 5126,
      "count": 741,
      "max": [
        353.6080017089844,
        -299.1570129394531,
        4.310520172119141
      ],
      "min": [
        345.49700927734375,
        -300.6610107421875,
        3.856060028076172
      ],
      "type": "VEC3"
    },
    {
      "bufferView": 2,
      "byteOffset": 3240060,
      "componentType": 5126,
      "count": 741,
      "max": [
        0.9987623691558838,
        0.9929882884025574,
        0.9953712224960327
      ],
      "min": [
        -0.9987623691558838,
        -0.9607493281364441,
        -0.702160120010376
      ],
      "type": "VEC3"
    },
    {
      "bufferView": 1,
      "byteOffset": 2051576,
      "componentType": 5126,
      "count": 741,
      "max": [
        0.9868159890174866,
        0.5498049855232239
      ],
      "min": [
        0.9799799919128418,
        0.5429689884185791
      ],
      "type": "VEC2"
    },
    {
      "bufferView": 1,
      "byteOffset": 2057504,
      "componentType": 5126,
      "count": 741,
      "max": [
        0.9868159890174866,
        0.5498049855232239
      ],
      "min": [
        0.9799799919128418,
        0.5429689884185791
      ],
      "type": "VEC2"
    },
    {
      "bufferView": 0,
      "byteOffset": 1973676,
      "componentType": 5125,
      "count": 3414,
      "type": "SCALAR"
    },
    {
      "bufferView": 2,
      "byteOffset": 3248952,
      "componentType": 5126,
      "count": 247,
      "max": [
        351.0790100097656,
        -300.4320068359375,
        2.958930015563965
      ],
      "min": [
        348.0249938964844,
        -300.84600830078125,
        2.001189947128296
      ],
      "type": "VEC3"
    },
    {
      "bufferView": 2,
      "byteOffset": 3251916,
      "componentType": 5126,
      "count": 247,
      "max": [
        0.007891407236456871,
        -0.9154028296470642,
        -0.3929585814476013
      ],
      "min": [
        -0.007891407236456871,
        -0.9195510745048523,
        -0.4024742841720581
      ],
      "type": "VEC3"
    },
    {
      "bufferView": 1,
      "byteOffset": 2063432,
      "componentType": 5126,
      "count": 247,
      "max": [
        3.8119800090789795,
        1.5656800270080566
      ],
      "min": [
        -2.8119800090789795,
        -1.2032500505447388
      ],
      "type": "VEC2"
    },
    {
      "bufferView": 1,
      "byteOffset": 2065408,
      "componentType": 5126,
      "count": 247,
      "max": [
        3.8119800090789795,
        1.5656800270080566
      ],
      "min": [
        -2.8119800090789795,
        -1.2032500505447388
      ],
      "type": "VEC2"
    },
    {
      "bufferView": 0,
      "byteOffset": 1987332,
      "componentType": 5125,
      "count": 756,
      "type": "SCALAR"
    },
    {
      "bufferView": 2,
      "byteOffset": 3254880,
      "componentType": 5126,
      "count": 98,
      "max": [
        350.82000732421875,
        -300.4649963378906,
        2.8696200847625732
      ],
      "min": [
        348.2879943847656,
        -300.8080139160156,
        2.077049970626831
      ],
      "type": "VEC3"
    },
    {
      "bufferView": 2,
      "byteOffset": 3256056,
      "componentType": 5126,
      "count": 98,
      "max": [
        0.0,
        -0.9166960120201111,
        -0.3929706811904907
      ],
      "min": [
        0.0,
        -0.9195510745048523,
        -0.3995855748653412
      ],
      "type": "VEC3"
    },
    {
      "bufferView": 1,
      "byteOffset": 2067384,
      "componentType": 5126,
      "count": 98,
      "max": [
        3.2487800121307373,
        1.3073999881744385
      ],
      "min": [
        -2.2427399158477783,
        -0.9803280234336853
      ],
      "type": "VEC2"
    },
    {
      "bufferView": 1,
      "byteOffset": 2068168,
      "componentType": 5126,
      "count": 98,
      "max": [
        3.2487800121307373,
        1.3073999881744385
      ],
      "min": [
        -2.2427399158477783,
        -0.9803280234336853
      ],
      "type": "VEC2"
    },
    {
      "bufferView": 0,
      "byteOffset": 1990356,
      "componentType": 5125,
      "count": 309,
      "type": "SCALAR"
    },
    {
      "bufferView": 2,
      "byteOffset": 3257232,
      "componentType": 5126,
      "count": 3172,
      "max": [
        352.7330017089844,
        -289.0660095214844,
        4.817629814147949
      ],
      "min": [
        349.3070068359375,
        -294.29400634765625,
        2.427190065383911
      ],
      "type": "VEC3"
    },
    {
      "bufferView": 2,
      "byteOffset": 3295296,
      "componentType": 5126,
      "count": 3172,
      "max": [
        0.9993805885314941,
        1.0,
        0.9999690055847168
      ],
      "min": [
        -0.9993805885314941,
        -0.9995972514152527,
        -0.9998451471328735
      ],
      "type": "VEC3"
    },
    {
      "bufferView": 1,
      "byteOffset": 2068952,
      "componentType": 5126,
      "count": 3172,
      "max": [
        157.375,
        40.40620040893555
      ],
      "min": [
        -58.125,
        -78.125
      ],
      "type": "VEC2"
    },
    {
      "bufferView": 1,
      "byteOffset": 2094328,
      "componentType": 5126,
      "count": 3172,
      "max": [
        157.375,
        40.40620040893555
      ],
      "min": [
        -58.125,
        -78.125
      ],
      "type": "VEC2"
    },
    {
      "bufferView": 0,
      "byteOffset": 1991592,
      "componentType": 5125,
      "count": 8412,
      "type": "SCALAR"
    },
    {
      "bufferView": 2,
      "byteOffset": 3333360,
      "componentType": 5126,
      "count": 1300,
      "max": [
        352.3699951171875,
        -288.364013671875,
        4.9824299812316895
      ],
      "min": [
        349.66400146484375,
        -292.5929870605469,
        1.9462599754333496
      ],
      "type": "VEC3"
    },
    {
      "bufferView": 2,
      "byteOffset": 3348960,
      "componentType": 5126,
      "count": 1300,
      "max": [
        0.9969143867492676,
        0.986149251461029,
        1.0
      ],
      "min": [
        -0.9969143867492676,
        -0.9992259740829468,
        -0.9939764738082886
      ],
      "type": "VEC3"
    },
    {
      "bufferView": 1,
      "byteOffset": 2119704,
      "componentType": 5126,
      "count": 1300,
      "max": [
        32.78120040893555,
        7.738279819488525
      ],
      "min": [
        -32.0,
        -6.871089935302734
      ],
      "type": "VEC2"
    },
    {
      "bufferView": 1,
      "byteOffset": 2130104,
      "componentType": 5126,
      "count": 1300,
      "max": [
        32.78120040893555,
        7.738279819488525
      ],
      "min": [
        -32.0,
        -6.871089935302734
      ],
      "type": "VEC2"
    },
    {
      "bufferView": 0,
      "byteOffset": 2025240,
      "componentType": 5125,
      "count": 6264,
      "type": "SCALAR"
    },
    {
      "bufferView": 2,
      "byteOffset": 3364560,
      "componentType": 5126,
      "count": 51,
      "max": [
        351.44500732421875,
        -289.5010070800781,
        3.7352800369262695
      ],
      "min": [
        350.5899963378906,
        -291.6180114746094,
        2.115989923477173
      ],
      "type": "VEC3"
    },
    {
      "bufferView": 2,
      "byteOffset": 3365172,
      "componentType": 5126,
      "count": 51,
      "max": [
        0.9214311838150024,
        0.9051752090454102,
        0.9834901690483093
      ],
      "min": [
        -0.9214311838150024,
        -0.941386342048645,
        -0.6789356470108032
      ],
      "type": "VEC3"
    },
    {
      "bufferView": 1,
      "byteOffset": 2140504,
      "componentType": 5126,
      "count": 51,
      "max": [
        5.959010124206543,
        2.719480037689209
      ],
      "min": [
        -5.326059818267822,
        -2.0360000133514404
      ],
      "type": "VEC2"
    },
    {
      "bufferView": 1,
      "byteOffset": 2140912,
      "componentType": 5126,
      "count": 51,
      "max": [
        5.959010124206543,
        2.719480037689209
      ],
      "min": [
        -5.326059818267822,
        -2.0360000133514404
      ],
      "type": "VEC2"
    },
    {
      "bufferView": 0,
      "byteOffset": 2050296,
      "componentType": 5125,
      "count": 198,
      "type": "SCALAR"
    },
    {
      "bufferView": 2,
      "byteOffset": 3365784,
      "componentType": 5126,
      "count": 8,
      "max": [
        350.8970031738281,
        -299.3169860839844,
        3.511630058288574
      ],
      "min": [
        348.2070007324219,
        -300.90399169921875,
        2.1180999279022217
      ],
      "type": "VEC3"
    },
    {
      "bufferView": 2,
      "byteOffset": 3365880,
      "componentType": 5126,
      "count": 8,
      "max": [
        0.0,
        0.5974810123443604,
        0.8018831610679626
      ],
      "min": [
        0.0,
        -0.5974810123443604,
        -0.8018831610679626
      ],
      "type": "VEC3"
    },
    {
      "bufferView": 1,
      "byteOffset": 2141320,
      "componentType": 5126,
      "count": 8,
      "max": [
        35.628700256347656,
        22.037399291992188
      ],
      "min": [
        -35.3927001953125,
        -28.99970054626465
      ],
      "type": "VEC2"
    },
    {
      "bufferView": 1,
      "byteOffset": 2141384,
      "componentType": 5126,
      "count": 8,
      "max": [
        35.628700256347656,
        22.037399291992188
      ],
      "min": [
        -35.3927001953125,
        -28.99970054626465
      ],
      "type": "VEC2"
    },
    {
      "bufferView": 0,
      "byteOffset": 2051088,
      "componentType": 5125,
      "count": 12,
      "type": "SCALAR"
    },
    {
      "bufferView": 2,
      "byteOffset": 3365976,
      "componentType": 5126,
      "count": 1364,
      "max": [
        351.4930114746094,
        -283.4649963378906,
        5.2533698081970215
      ],
      "min": [
        347.1830139160156,
        -294.7460021972656,
        1.573930025100708
      ],
      "type": "VEC3"
    },
    {
      "bufferView": 2,
      "byteOffset": 3382344,
      "componentType": 5126,
      "count": 1364,
      "max": [
        1.0,
        0.9999690055847168,
        1.0
      ],
      "min": [
        -1.0,
        -0.9999690055847168,
        -0.9994425177574158
      ],
      "type": "VEC3"
    },
    {
      "bufferView": 1,
      "byteOffset": 2141448,
      "componentType": 5126,
      "count": 1364,
      "max": [
        51.0625,
        51.5625
      ],
      "min": [
        -60.75,
        -50.5625
      ],
      "type": "VEC2"
    },
    {
      "bufferView": 1,
      "byteOffset": 2152360,
      "componentType": 5126,
      "count": 1364,
      "max": [
        51.0625,
        51.5625
      ],
      "min": [
        -60.75,
        -50.5625
      ],
      "type": "VEC2"
    },
    {
      "bufferView": 0,
      "byteOffset": 2051136,
      "componentType": 5125,
      "count": 5964,
      "type": "SCALAR"
    },
    {
      "bufferView": 2,
      "byteOffset": 3398712,
      "componentType": 5126,
      "count": 38,
      "max": [
        351.77301025390625,
        -293.76800537109375,
        3.3316500186920166
      ],
      "min": [
        350.2439880371094,
        -295.5530090332031,
        2.2719600200653076
      ],
      "type": "VEC3"
    },
    {
      "bufferView": 2,
      "byteOffset": 3399168,
      "componentType": 5126,
      "count": 38,
      "max": [
        0.0,
        0.9848629236221313,
        1.0
      ],
      "min": [
        -0.9970064759254456,
        -0.0,
        0.03140181675553322
      ],
      "type": "VEC3"
    },
    {
      "bufferView": 1,
      "byteOffset": 2163272,
      "componentType": 5126,
      "count": 38,
      "max": [
        16.41629981994629,
        25.28030014038086
      ],
      "min": [
        -15.308600425720215,
        -24.300800323486328
      ],
      "type": "VEC2"
    },
    {
      "bufferView": 1,
      "byteOffset": 2163576,
      "componentType": 5126,
      "count": 38,
      "max": [
        16.41629981994629,
        25.28030014038086
      ],
      "min": [
        -15.308600425720215,
        -24.300800323486328
      ],
      "type": "VEC2"
    },
    {
      "bufferView": 0,
      "byteOffset": 2074992,
      "componentType": 5125,
      "count": 96,
      "type": "SCALAR"
    },
    {
      "bufferView": 2,
      "byteOffset": 3399624,
      "componentType": 5126,
      "count": 735,
      "max": [
        352.2969970703125,
        -289.1050109863281,
        5.82105016708374
      ],
      "min": [
        349.7380065917969,
        -292.3590087890625,
        1.9481099843978882
      ],
      "type": "VEC3"
    },
    {
      "bufferView": 2,
      "byteOffset": 3408444,
      "componentType": 5126,
      "count": 735,
      "max": [
        0.9928650856018066,
        1.0,
        1.0
      ],
      "min": [
        -0.9928650856018066,
        -0.9992259740829468,
        -0.9929882884025574
      ],
      "type": "VEC3"
    },
    {
      "bufferView": 1,
      "byteOffset": 2163880,
      "componentType": 5126,
      "count": 735,
      "max": [
        16.921899795532227,
        10.304699897766113
      ],
      "min": [
        -15.9375,
        -8.97655963897705
      ],
      "type": "VEC2"
    },
    {
      "bufferView": 1,
      "byteOffset": 2169760,
      "componentType": 5126,
      "count": 735,
      "max": [
        16.921899795532227,
        10.304699897766113
      ],
      "min": [
        -15.9375,
        -8.97655963897705
      ],
      "type": "VEC2"
    },
    {
      "bufferView": 0,
      "byteOffset": 2075376,
      "componentType": 5125,
      "count": 3225,
      "type": "SCALAR"
    },
    {
      "bufferView": 2,
      "byteOffset": 3417264,
      "componentType": 5126,
      "count": 3283,
      "max": [
        353.6860046386719,
        -284.7430114746094,
        6.1832499504089355
      ],
      "min": [
        345.4179992675781,
        -296.0790100097656,
        1.6612199544906616
      ],
      "type": "VEC3"
    },
    {
      "bufferView": 2,
      "byteOffset": 3456660,
      "componentType": 5126,
      "count": 3283,
      "max": [
        1.0,
        1.0,
        1.0
      ],
      "min": [
        -1.0,
        -0.9995972514152527,
        -0.9084171056747437
      ],
      "type": "VEC3"
    },
    {
      "bufferView": 1,
      "byteOffset": 2175640,
      "componentType": 5126,
      "count": 3283,
      "max": [
        0.9995120167732239,
        0.9785159826278687
      ],
      "min": [
        0.0007099999929778278,
        0.0020959998946636915
      ],
      "type": "VEC2"
    },
    {
      "bufferView": 1,
      "byteOffset": 2201904,
      "componentType": 5126,
      "count": 3283,
      "max": [
        0.9995120167732239,
        0.9785159826278687
      ],
      "min": [
        0.0007099999929778278,
        0.0020959998946636915
      ],
      "type": "VEC2"
    },
    {
      "bufferView": 0,
      "byteOffset": 2088276,
      "componentType": 5125,
      "count": 5085,
      "type": "SCALAR"
    },
    {
      "bufferView": 2,
      "byteOffset": 3496056,
      "componentType": 5126,
      "count": 400,
      "max": [
        346.9779968261719,
        -282.9330139160156,
        4.686820030212402
      ],
      "min": [
        345.64300537109375,
        -300.6619873046875,
        3.791800022125244
      ],
      "type": "VEC3"
    },
    {
      "bufferView": 2,
      "byteOffset": 3500856,
      "componentType": 5126,
      "count": 400,
      "max": [
        0.0706343799829483,
        0.7688703536987305,
        0.9995044469833374
      ],
      "min": [
        -1.0,
        -0.7813466191291809,
        -0.9972524046897888
      ],
      "type": "VEC3"
    },
    {
      "bufferView": 1,
      "byteOffset": 2228168,
      "componentType": 5126,
      "count": 400,
      "max": [
        0.7382810115814209,
        0.9101560115814209
      ],
      "min": [
        0.5747069716453552,
        0.8891599774360657
      ],
      "type": "VEC2"
    },
    {
      "bufferView": 1,
      "byteOffset": 2231368,
      "componentType": 5126,
      "count": 400,
      "max": [
        0.7382810115814209,
        0.9101560115814209
      ],
      "min": [
        0.5747069716453552,
        0.8891599774360657
      ],
      "type": "VEC2"
    },
    {
      "bufferView": 0,
      "byteOffset": 2108616,
      "componentType": 5125,
      "count": 1173,
      "type": "SCALAR"
    },
    {
      "bufferView": 2,
      "byteOffset": 3505656,
      "componentType": 5126,
      "count": 1375,
      "max": [
        352.989013671875,
        -282.2980041503906,
        4.717979907989502
      ],
      "min": [
        346.114990234375,
        -283.10400390625,
        4.596789836883545
      ],
      "type": "VEC3"
    },
    {
      "bufferView": 2,
      "byteOffset": 3522156,
      "componentType": 5126,
      "count": 1375,
      "max": [
        1.0,
        0.7688703536987305,
        0.9994733929634094
      ],
      "min": [
        -1.0,
        -0.023685982450842857,
        -0.827464759349823
      ],
      "type": "VEC3"
    },
    {
      "bufferView": 1,
      "byteOffset": 2234568,
      "componentType": 5126,
      "count": 1375,
      "max": [
        0.5776370167732239,
        0.8940430283546448
      ],
      "min": [
        0.5747069716453552,
        0.8891599774360657
      ],
      "type": "VEC2"
    },
    {
      "bufferView": 1,
      "byteOffset": 2245568,
      "componentType": 5126,
      "count": 1375,
      "max": [
        0.5776370167732239,
        0.8940430283546448
      ],
      "min": [
        0.5747069716453552,
        0.8891599774360657
      ],
      "type": "VEC2"
    },
    {
      "bufferView": 0,
      "byteOffset": 2113308,
      "componentType": 5125,
      "count": 4932,
      "type": "SCALAR"
    },
    {
      "bufferView": 2,
      "byteOffset": 3538656,
      "componentType": 5126,
      "count": 11177,
      "max": [
        353.7560119628906,
        -282.0639953613281,
        4.774899959564209
      ],
      "min": [
        345.3489990234375,
        -301.12298583984375,
        3.6136600971221924
      ],
      "type": "VEC3"
    },
    {
      "bufferView": 2,
      "byteOffset": 3672780,
      "componentType": 5126,
      "count": 11177,
      "max": [
        1.0,
        1.0,
        1.0
      ],
      "min": [
        -1.0,
        -1.0,
        -0.9997212290763855
      ],
      "type": "VEC3"
    },
    {
      "bufferView": 1,
      "byteOffset": 2256568,
      "componentType": 5126,
      "count": 11177,
      "max": [
        3.6210899353027344,
        0.9851469993591309
      ],
      "min": [
        -1.5195300579071045,
        0.01769999973475933
      ],
      "type": "VEC2"
    },
    {
      "bufferView": 1,
      "byteOffset": 2345984,
      "componentType": 5126,
      "count": 11177,
      "max": [
        3.6210899353027344,
        0.9851469993591309
      ],
      "min": [
        -1.5195300579071045,
        0.01769999973475933
      ],
      "type": "VEC2"
    },
    {
      "bufferView": 0,
      "byteOffset": 2133036,
      "componentType": 5125,
      "count": 32502,
      "type": "SCALAR"
    },
    {
      "bufferView": 2,
      "byteOffset": 3806904,
      "componentType": 5126,
      "count": 400,
      "max": [
        353.4620056152344,
        -282.9330139160156,
        4.686820030212402
      ],
      "min": [
        352.12701416015625,
        -300.6619873046875,
        3.7918100357055664
      ],
      "type": "VEC3"
    },
    {
      "bufferView": 2,
      "byteOffset": 3811704,
      "componentType": 5126,
      "count": 400,
      "max": [
        1.0,
        0.7651807069778442,
        0.9995044469833374
      ],
      "min": [
        -0.0706343799829483,
        -0.7813466191291809,
        -0.9972524046897888
      ],
      "type": "VEC3"
    },
    {
      "bufferView": 1,
      "byteOffset": 2435400,
      "componentType": 5126,
      "count": 400,
      "max": [
        0.7382810115814209,
        0.9101560115814209
      ],
      "min": [
        0.5747069716453552,
        0.8891599774360657
      ],
      "type": "VEC2"
    },
    {
      "bufferView": 1,
      "byteOffset": 2438600,
      "componentType": 5126,
      "count": 400,
      "max": [
        0.7382810115814209,
        0.9101560115814209
      ],
      "min": [
        0.5747069716453552,
        0.8891599774360657
      ],
      "type": "VEC2"
    },
    {
      "bufferView": 0,
      "byteOffset": 2263044,
      "componentType": 5125,
      "count": 1173,
      "type": "SCALAR"
    },
    {
      "bufferView": 2,
      "byteOffset": 3816504,
      "componentType": 5126,
      "count": 136,
      "max": [
        351.0050048828125,
        -282.2749938964844,
        4.718699932098389
      ],
      "min": [
        348.1000061035156,
        -282.4909973144531,
        4.613339900970459
      ],
      "type": "VEC3"
    },
    {
      "bufferView": 2,
      "byteOffset": 3818136,
      "componentType": 5126,
      "count": 136,
      "max": [
        1.0,
        0.7656334042549133,
        0.9194375276565552
      ],
      "min": [
        -1.0,
        -0.015707647427916527,
        -0.8277475237846375
      ],
      "type": "VEC3"
    },
    {
      "bufferView": 1,
      "byteOffset": 2441800,
      "componentType": 5126,
      "count": 136,
      "max": [
        0.5776370167732239,
        0.8940430283546448
      ],
      "min": [
        0.5747069716453552,
        0.8891599774360657
      ],
      "type": "VEC2"
    },
    {
      "bufferView": 1,
      "byteOffset": 2442888,
      "componentType": 5126,
      "count": 136,
      "max": [
        0.5776370167732239,
        0.8940430283546448
      ],
      "min": [
        0.5747069716453552,
        0.8891599774360657
      ],
      "type": "VEC2"
    },
    {
      "bufferView": 0,
      "byteOffset": 2267736,
      "componentType": 5125,
      "count": 480,
      "type": "SCALAR"
    },
    {
      "bufferView": 2,
      "byteOffset": 3819768,
      "componentType": 5126,
      "count": 20856,
      "max": [
        354.0069885253906,
        -281.3550109863281,
        6.512979984283447
      ],
      "min": [
        345.0979919433594,
        -300.5769958496094,
        3.8246500492095947
      ],
      "type": "VEC3"
    },
    {
      "bufferView": 2,
      "byteOffset": 4070040,
      "componentType": 5126,
      "count": 20856,
      "max": [
        1.0,
        1.0,
        0.9999690055847168
      ],
      "min": [
        -1.0,
        -0.8044227361679077,
        -0.9997212290763855
      ],
      "type": "VEC3"
    },
    {
      "bufferView": 1,
      "byteOffset": 2443976,
      "componentType": 5126,
      "count": 20856,
      "max": [
        38.505001068115234,
        -20.901399612426758
      ],
      "min": [
        19.512399673461914,
        -45.0452995300293
      ],
      "type": "VEC2"
    },
    {
      "bufferView": 0,
      "byteOffset": 2269656,
      "componentType": 5125,
      "count": 48300,
      "type": "SCALAR"
    },
    {
      "bufferView": 2,
      "byteOffset": 4320312,
      "componentType": 5126,
      "count": 46864,
      "max": [
        354.4010009765625,
        -283.7439880371094,
        4.339409828186035
      ],
      "min": [
        344.6520080566406,
        -299.0299987792969,
        1.1273399591445923
      ],
      "type": "VEC3"
    },
    {
      "bufferView": 2,
      "byteOffset": 4882680,
      "componentType": 5126,
      "count": 46864,
      "max": [
        1.0,
        1.0,
        1.0
      ],
      "min": [
        -1.0,
        -1.0,
        -1.0
      ],
      "type": "VEC3"
    },
    {
      "bufferView": 1,
      "byteOffset": 2610824,
      "componentType": 5126,
      "count": 46864,
      "max": [
        0.9931640028953552,
        0.9956049919128418
      ],
      "min": [
        0.004414000082761049,
        0.006171999964863062
      ],
      "type": "VEC2"
    },
    {
      "bufferView": 1,
      "byteOffset": 2985736,
      "componentType": 5126,
      "count": 46864,
      "max": [
        0.9931640028953552,
        0.9956049919128418
      ],
      "min": [
        0.004414000082761049,
        0.006171999964863062
      ],
      "type": "VEC2"
    },
    {
      "bufferView": 0,
      "byteOffset": 2462856,
      "componentType": 5125,
      "count": 172296,
      "type": "SCALAR"
    },
    {
      "bufferView": 2,
      "byteOffset": 5445048,
      "componentType": 5126,
      "count": 204,
      "max": [
        354.00799560546875,
        -281.35198974609375,
        6.512979984283447
      ],
      "min": [
        345.09698486328125,
        -281.3909912109375,
        5.787680149078369
      ],
      "type": "VEC3"
    },
    {
      "bufferView": 2,
      "byteOffset": 5447496,
      "componentType": 5126,
      "count": 204,
      "max": [
        0.9996901750564575,
        1.0,
        0.8721523284912109
      ],
      "min": [
        -0.9996901750564575,
        -0.785771369934082,
        -0.9491283297538757
      ],
      "type": "VEC3"
    },
    {
      "bufferView": 1,
      "byteOffset": 3360648,
      "componentType": 5126,
      "count": 204,
      "max": [
        0.9853519797325134,
        0.5488280057907104
      ],
      "min": [
        0.9833980202674866,
        0.546875
      ],
      "type": "VEC2"
    },
    {
      "bufferView": 1,
      "byteOffset": 3362280,
      "componentType": 5126,
      "count": 204,
      "max": [
        0.9853519797325134,
        0.5488280057907104
      ],
      "min": [
        0.9833980202674866,
        0.546875
      ],
      "type": "VEC2"
    },
    {
      "bufferView": 0,
      "byteOffset": 3152040,
      "componentType": 5125,
      "count": 906,
      "type": "SCALAR"
    }
  ],
  "asset": {
    "extras": {
      "author": "VTX (https://sketchfab.com/VTX_car)",
      "license": "CC-BY-NC-SA-4.0 (http://creativecommons.org/licenses/by-nc-sa/4.0/)",
      "source": "https://sketchfab.com/3d-models/porsche-mission-r-concept-93341007191b42aabdd3365d7acd8a39",
      "title": "Porsche Mission R Concept"
    },
    "generator": "Sketchfab-0.13.0",
    "version": "2.0"
  },
  "bufferViews": [
    {
      "buffer": 0,
      "byteLength": 3155664,
      "name": "floatBufferViews",
      "target": 34963
    },
    {
      "buffer": 0,
      "byteLength": 3363912,
      "byteOffset": 3155664,
      "byteStride": 8,
      "name": "floatBufferViews",
      "target": 34962
    },
    {
      "buffer": 0,
      "byteLength": 5449944,
      "byteOffset": 6519576,
      "byteStride": 12,
      "name": "floatBufferViews",
      "target": 34962
    }
  ],
  "buffers": [
    {
      "byteLength": 11969520,
      "uri": "scene.bin"
    }
  ],
  "extensionsUsed": [
    "KHR_materials_clearcoat",
    "KHR_materials_emissive_strength"
  ],
  "images": [
    {
      "uri": "textures/Carbon1Mtl_baseColor.png"
    },
    {
      "uri": "textures/Doorlfg0011Mtl_baseColor.png"
    },
    {
      "uri": "textures/Doorlfok0011Mtl_baseColor.png"
    },
    {
      "uri": "textures/Doorlfok0021Mtl_baseColor.png"
    },
    {
      "uri": "textures/Doorlfok0031Mtl_baseColor.png"
    },
    {
      "uri": "textures/Doorlfok0041Mtl_baseColor.png"
    },
    {
      "uri": "textures/Glass0041Mtl_baseColor.png"
    },
    {
      "uri": "textures/Glass1Mtl_baseColor.png"
    },
    {
      "uri": "textures/Gr10011Mtl_baseColor.png"
    },
    {
      "uri": "textures/Gr11Mtl_baseColor.png"
    },
    {
      "uri": "textures/Gr61Mtl_baseColor.png"
    },
    {
      "uri": "textures/Gralpha0011Mtl_baseColor.png"
    },
    {
      "uri": "textures/Gralpha0021Mtl_baseColor.png"
    },
    {
      "uri": "textures/Gralpha0031Mtl_baseColor.png"
    },
    {
      "uri": "textures/Gralpha0041Mtl_baseColor.png"
    },
    {
      "uri": "textures/Gralpha1Mtl_baseColor.png"
    },
    {
      "uri": "textures/Int21Mtl_baseColor.png"
    },
    {
      "uri": "textures/Intalpha1Mtl_baseColor.png"
    },
    {
      "uri": "textures/Light0011Mtl_baseColor.png"
    },
    {
      "uri": "textures/Light0021Mtl_baseColor.png"
    },
    {
      "uri": "textures/Light0021Mtl_emissive.png"
    },
    {
      "uri": "textures/Light0031Mtl_baseColor.png"
    },
    {
      "uri": "textures/Light0041Mtl_baseColor.png"
    },
    {
      "uri": "textures/Light0051Mtl_baseColor.png"
    },
    {
      "uri": "textures/Rl1Mtl_baseColor.png"
    },
    {
      "uri": "textures/Spoiler1Mtl_baseColor.png"
    }
  ],
  "materials": [
    {
      "alphaMode": "BLEND",
      "doubleSided": true,
      "name": "Bdg0011Mtl",
      "pbrMetallicRoughness": {
        "baseColorFactor": [
          1.0,
          1.0,
          1.0,
          0.0
        ],
        "metallicFactor": 0.0
      }
    },
    {
      "doubleSided": true,
      "emissiveTexture": {
        "index": 0
      },
      "name": "Carbon1Mtl",
      "pbrMetallicRoughness": {
        "baseColorTexture": {
          "index": 0
        },
        "roughnessFactor": 0.0
      }
    },
    {
      "doubleSided": true,
      "emissiveTexture": {
        "index": 1
      },
      "name": "Doorlfg0011Mtl",
      "pbrMetallicRoughness": {
        "baseColorTexture": {
          "index": 1
        },
        "metallicFactor": 0.0,
        "roughnessFactor": 0.274709
      }
    },
    {
      "alphaMode": "BLEND",
      "doubleSided": true,
      "name": "Doorlfg1Mtl",
      "pbrMetallicRoughness": {
        "baseColorFactor": [
          0.55834,
          0.973445,
          0.571125,
          0.352941
        ],
        "roughnessFactor": 0.0
      }
    },
    {
      "doubleSided": true,
      "emissiveTexture": {
        "index": 2
      },
      "name": "Doorlfok0011Mtl",
      "pbrMetallicRoughness": {
        "baseColorTexture": {
          "index": 2
        },
        "metallicFactor": 0.0,
        "roughnessFactor": 0.0
      }
    },
    {
      "doubleSided": true,
      "emissiveTexture": {
        "index": 3
      },
      "name": "Doorlfok0021Mtl",
      "pbrMetallicRoughness": {
        "baseColorTexture": {
          "index": 3
        },
        "roughnessFactor": 0.0
      }
    },
    {
      "doubleSided": true,
      "emissiveTexture": {
        "index": 4
      },
      "name": "Doorlfok0031Mtl",
      "pbrMetallicRoughness": {
        "baseColorTexture": {
          "index": 4
        },
        "roughnessFactor": 0.0
      }
    },
    {
      "doubleSided": true,
      "emissiveTexture": {
        "index": 5
      },
      "extensions": {
        "KHR_materials_clearcoat": {
          "clearcoatFactor": 1.0,
          "clearcoatRoughnessFactor": 0.04
        }
      },
      "name": "Doorlfok0041Mtl",
      "pbrMetallicRoughness": {
        "baseColorFactor": [
          0.5775255696017358,
          0.5775255696017358,
          0.5775255696017358,
          1.0
        ],
        "baseColorTexture": {
          "index": 5
        },
        "metallicFactor": 0.0,
        "roughnessFactor": 0.0
      }
    },
    {
      "alphaMode": "BLEND",
      "doubleSided": true,
      "extensions": {
        "KHR_materials_clearcoat": {
          "clearcoatFactor": 1.0,
          "clearcoatRoughnessFactor": 0.04
        }
      },
      "name": "Glass0021Mtl",
      "pbrMetallicRoughness": {
        "baseColorFactor": [
          0.603827,
          0.973445,
          0.571125,
          0.352941
        ],
        "roughnessFactor": 0.0
      }
    },
    {
      "alphaMode": "BLEND",
      "doubleSided": true,
      "name": "Glass0031Mtl",
      "pbrMetallicRoughness": {
        "baseColorFactor": [
          0.55873,
          0.970068,
          0.574187,
          0.626453
        ],
        "roughnessFactor": 0.0
      }
    },
    {
      "alphaMode": "BLEND",
      "doubleSided": true,
      "name": "Glass0041Mtl",
      "pbrMetallicRoughness": {
        "baseColorTexture": {
          "index": 6
        },
        "metallicFactor": 0.0,
        "roughnessFactor": 0.0
      }
    },
    {
      "alphaMode": "BLEND",
      "doubleSided": true,
      "extensions": {
        "KHR_materials_clearcoat": {
          "clearcoatFactor": 1.0,
          "clearcoatRoughnessFactor": 0.04
        }
      },
      "name": "Glass1Mtl",
      "pbrMetallicRoughness": {
        "baseColorFactor": [
          1.0,
          1.0,
          1.0,
          0.475291
        ],
        "baseColorTexture": {
          "index": 7
        },
        "metallicFactor": 0.0,
        "roughnessFactor": 0.0
      }
    },
    {
      "doubleSided": true,
      "name": "Gr10011Mtl",
      "pbrMetallicRoughness": {
        "baseColorFactor": [
          0.0,
          0.0,
          0.0,
          1.0
        ],
        "baseColorTexture": {
          "index": 8
        },
        "roughnessFactor": 0.3337153027513988
      }
    },
    {
      "doubleSided": true,
      "name": "Gr11Mtl",
      "pbrMetallicRoughness": {
        "baseColorTexture": {
          "index": 9
        },
        "roughnessFactor": 0.9249551998634662
      }
    },
    {
      "alphaMode": "BLEND",
      "doubleSided": true,
      "name": "Gr61Mtl",
      "pbrMetallicRoughness": {
        "baseColorFactor": [
          1.0,
          1.0,
          1.0,
          0.0
        ],
        "baseColorTexture": {
          "index": 10
        },
        "metallicFactor": 0.0
      }
    },
    {
      "doubleSided": true,
      "emissiveTexture": {
        "index": 11
      },
      "name": "Gralpha0011Mtl",
      "pbrMetallicRoughness": {
        "baseColorTexture": {
          "index": 11
        },
        "metallicFactor": 0.0
      }
    },
    {
      "alphaMode": "BLEND",
      "doubleSided": true,
      "name": "Gralpha0021Mtl",
      "pbrMetallicRoughness": {
        "baseColorFactor": [
          1.0,
          1.0,
          1.0,
          0.0
        ],
        "baseColorTexture": {
          "index": 12
        },
        "metallicFactor": 0.0
      }
    },
    {
      "alphaMode": "BLEND",
      "doubleSided": true,
      "name": "Gralpha0031Mtl",
      "pbrMetallicRoughness": {
        "baseColorFactor": [
          1.0,
          1.0,
          1.0,
          0.0
        ],
        "baseColorTexture": {
          "index": 13
        },
        "metallicFactor": 0.0
      }
    },
    {
      "alphaMode": "BLEND",
      "doubleSided": true,
      "name": "Gralpha0041Mtl",
      "pbrMetallicRoughness": {
        "baseColorFactor": [
          1.0,
          1.0,
          1.0,
          0.0
        ],
        "baseColorTexture": {
          "index": 14
        },
        "metallicFactor": 0.0
      }
    },
    {
      "alphaMode": "BLEND",
      "doubleSided": true,
      "name": "Gralpha1Mtl",
      "pbrMetallicRoughness": {
        "baseColorFactor": [
          1.0,
          1.0,
          1.0,
          0.0
        ],
        "baseColorTexture": {
          "index": 15
        },
        "metallicFactor": 0.0
      }
    },
    {
      "doubleSided": true,
      "emissiveTexture": {
        "index": 16
      },
      "name": "Int21Mtl",
      "pbrMetallicRoughness": {
        "baseColorTexture": {
          "index": 16
        },
        "metallicFactor": 0.0
      }
    },
    {
      "alphaMode": "BLEND",
      "doubleSided": true,
      "emissiveTexture": {
        "index": 1
      },
      "name": "Intalpha1Mtl",
      "pbrMetallicRoughness": {
        "baseColorFactor": [
          1.0,
          1.0,
          1.0,
          0.0
        ],
        "baseColorTexture": {
          "index": 17
        },
        "metallicFactor": 0.0
      }
    },
    {
      "alphaMode": "BLEND",
      "doubleSided": true,
      "name": "Light0011Mtl",
      "pbrMetallicRoughness": {
        "baseColorTexture": {
          "index": 18
        },
        "metallicFactor": 0.0
      }
    },
    {
      "alphaMode": "BLEND",
      "doubleSided": true,
      "emissiveFactor": [
        1.0,
        1.0,
        1.0
      ],
      "emissiveTexture": {
        "index": 20
      },
      "extensions": {
        "KHR_materials_emissive_strength": {
          "emissiveStrength": 10.0
        }
      },
      "name": "Light0021Mtl",
      "pbrMetallicRoughness": {
        "baseColorTexture": {
          "index": 19
        },
        "metallicFactor": 0.0
      }
    },
    {
      "doubleSided": true,
      "extensions": {
        "KHR_materials_clearcoat": {
          "clearcoatFactor": 1.0,
          "clearcoatRoughnessFactor": 0.04
        }
      },
      "name": "Light0031Mtl",
      "pbrMetallicRoughness": {
        "baseColorTexture": {
          "index": 21
        },
        "metallicFactor": 0.0,
        "roughnessFactor": 0.0
      }
    },
    {
      "alphaMode": "BLEND",
      "doubleSided": true,
      "name": "Light0041Mtl",
      "pbrMetallicRoughness": {
        "baseColorTexture": {
          "index": 22
        },
        "metallicFactor": 0.0
      }
    },
    {
      "alphaMode": "BLEND",
      "doubleSided": true,
      "name": "Light0051Mtl",
      "pbrMetallicRoughness": {
        "baseColorTexture": {
          "index": 23
        },
        "metallicFactor": 0.0
      }
    },
    {
      "doubleSided": true,
      "name": "Light1Mtl",
      "pbrMetallicRoughness": {
        "baseColorFactor": [
          0.373615,
          0.368591,
          0.383775,
          1.0
        ],
        "metallicFactor": 0.0
      }
    },
    {
      "doubleSided": true,
      "emissiveTexture": {
        "index": 24
      },
      "name": "Rl1Mtl",
      "pbrMetallicRoughness": {
        "baseColorTexture": {
          "index": 24
        },
        "metallicFactor": 0.3946678694639831,
        "roughnessFactor": 0.234012
      }
    },
    {
      "alphaMode": "BLEND",
      "doubleSided": true,
      "name": "Spoiler1Mtl",
      "pbrMetallicRoughness": {
        "baseColorFactor": [
          1.0,
          1.0,
          1.0,
          0.0
        ],
        "baseColorTexture": {
          "index": 25
        },
        "metallicFactor": 0.0
      }
    }
  ],
  "meshes": [
    {
      "name": "Object_0",
      "primitives": [
        {
          "attributes": {
            "NORMAL": 1,
            "POSITION": 0,
            "TEXCOORD_0": 2
          },
          "indices": 3,
          "material": 0,
          "mode": 4
        }
      ]
    },
    {
      "name": "Object_1",
      "primitives": [
        {
          "attributes": {
            "NORMAL": 5,
            "POSITION": 4,
            "TEXCOORD_0": 6,
            "TEXCOORD_1": 7
          },
          "indices": 8,
          "material": 1,
          "mode": 4
        }
      ]
    },
    {
      "name": "Object_2",
      "primitives": [
        {
          "attributes": {
            "NORMAL": 10,
            "POSITION": 9,
            "TEXCOORD_0": 11,
            "TEXCOORD_1": 12
          },
          "indices": 13,
          "material": 2,
          "mode": 4
        }
      ]
    },
    {
      "name": "Object_3",
      "primitives": [
        {
          "attributes": {
            "NORMAL": 15,
            "POSITION": 14,
            "TEXCOORD_0": 16
          },
          "indices": 17,
          "material": 3,
          "mode": 4
        }
      ]
    },
    {
      "name": "Object_4",
      "primitives": [
        {
          "attributes": {
            "NORMAL": 19,
            "POSITION": 18,
            "TEXCOORD_0": 20,
            "TEXCOORD_1": 21
          },
          "indices": 22,
          "material": 4,
          "mode": 4
        }
      ]
    },
    {
      "name": "Object_5",
      "primitives": [
        {
          "attributes": {
            "NORMAL": 24,
            "POSITION": 23,
            "TEXCOORD_0": 25,
            "TEXCOORD_1": 26
          },
          "indices": 27,
          "material": 5,
          "mode": 4
        }
      ]
    },
    {
      "name": "Object_6",
      "primitives": [
        {
          "attributes": {
            "NORMAL": 29,
            "POSITION": 28,
            "TEXCOORD_0": 30,
            "TEXCOORD_1": 31
          },
          "indices": 32,
          "material": 6,
          "mode": 4
        }
      ]
    },
    {
      "name": "Object_7",
      "primitives": [
        {
          "attributes": {
            "NORMAL": 34,
            "POSITION": 33,
            "TEXCOORD_0": 35,
            "TEXCOORD_1": 36
          },
          "indices": 37,
          "material": 7,
          "mode": 4
        }
      ]
    },
    {
      "name": "Object_8",
      "primitives": [
        {
          "attributes": {
            "NORMAL": 39,
            "POSITION": 38,
            "TEXCOORD_0": 40
          },
          "indices": 41,
          "material": 8,
          "mode": 4
        }
      ]
    },
    {
      "name": "Object_9",
      "primitives": [
        {
          "attributes": {
            "NORMAL": 43,
            "POSITION": 42,
            "TEXCOORD_0": 44
          },
          "indices": 45,
          "material": 9,
          "mode": 4
        }
      ]
    },
    {
      "name": "Object_10",
      "primitives": [
        {
          "attributes": {
            "NORMAL": 47,
            "POSITION": 46,
            "TEXCOORD_0": 48,
            "TEXCOORD_1": 49
          },
          "indices": 50,
          "material": 10,
          "mode": 4
        }
      ]
    },
    {
      "name": "Object_11",
      "primitives": [
        {
          "attributes": {
            "NORMAL": 52,
            "POSITION": 51,
            "TEXCOORD_0": 53,
            "TEXCOORD_1": 54
          },
          "indices": 55,
          "material": 11,
          "mode": 4
        }
      ]
    },
    {
      "name": "Object_12",
      "primitives": [
        {
          "attributes": {
            "NORMAL": 57,
            "POSITION": 56,
            "TEXCOORD_0": 58,
            "TEXCOORD_1": 59
          },
          "indices": 60,
          "material": 12,
          "mode": 4
        }
      ]
    },
    {
      "name": "Object_13",
      "primitives": [
        {
          "attributes": {
            "NORMAL": 62,
            "POSITION": 61,
            "TEXCOORD_0": 63,
            "TEXCOORD_1": 64
          },
          "indices": 65,
          "material": 13,
          "mode": 4
        }
      ]
    },
    {
      "name": "Object_14",
      "primitives": [
        {
          "attributes": {
            "NORMAL": 67,
            "POSITION": 66,
            "TEXCOORD_0": 68,
            "TEXCOORD_1": 69
          },
          "indices": 70,
          "material": 14,
          "mode": 4
        }
      ]
    },
    {
      "name": "Object_15",
      "primitives": [
        {
          "attributes": {
            "NORMAL": 72,
            "POSITION": 71,
            "TEXCOORD_0": 73,
            "TEXCOORD_1": 74
          },
          "indices": 75,
          "material": 15,
          "mode": 4
        }
      ]
    },
    {
      "name": "Object_16",
      "primitives": [
        {
          "attributes": {
            "NORMAL": 77,
            "POSITION": 76,
            "TEXCOORD_0": 78,
            "TEXCOORD_1": 79
          },
          "indices": 80,
          "material": 16,
          "mode": 4
        }
      ]
    },
    {
      "name": "Object_17",
      "primitives": [
        {
          "attributes": {
            "NORMAL": 82,
            "POSITION": 81,
            "TEXCOORD_0": 83,
            "TEXCOORD_1": 84
          },
          "indices": 85,
          "material": 17,
          "mode": 4
        }
      ]
    },
    {
      "name": "Object_18",
      "primitives": [
        {
          "attributes": {
            "NORMAL": 87,
            "POSITION": 86,
            "TEXCOORD_0": 88,
            "TEXCOORD_1": 89
          },
          "indices": 90,
          "material": 18,
          "mode": 4
        }
      ]
    },
    {
      "name": "Object_19",
      "primitives": [
        {
          "attributes": {
            "NORMAL": 92,
            "POSITION": 91,
            "TEXCOORD_0": 93,
            "TEXCOORD_1": 94
          },
          "indices": 95,
          "material": 19,
          "mode": 4
        }
      ]
    },
    {
      "name": "Object_20",
      "primitives": [
        {
          "attributes": {
            "NORMAL": 97,
            "POSITION": 96,
            "TEXCOORD_0": 98,
            "TEXCOORD_1": 99
          },
          "indices": 100,
          "material": 20,
          "mode": 4
        }
      ]
    },
    {
      "name": "Object_21",
      "primitives": [
        {
          "attributes": {
            "NORMAL": 102,
            "POSITION": 101,
            "TEXCOORD_0": 103,
            "TEXCOORD_1": 104
          },
          "indices": 105,
          "material": 21,
          "mode": 4
        }
      ]
    },
    {
      "name": "Object_22",
      "primitives": [
        {
          "attributes": {
            "NORMAL": 107,
            "POSITION": 106,
            "TEXCOORD_0": 108,
            "TEXCOORD_1": 109
          },
          "indices": 110,
          "material": 22,
          "mode": 4
        }
      ]
    },
    {
      "name": "Object_23",
      "primitives": [
        {
          "attributes": {
            "NORMAL": 112,
            "POSITION": 111,
            "TEXCOORD_0": 113,
            "TEXCOORD_1": 114
          },
          "indices": 115,
          "material": 23,
          "mode": 4
        }
      ]
    },
    {
      "name": "Object_24",
      "primitives": [
        {
          "attributes": {
            "NORMAL": 117,
            "POSITION": 116,
            "TEXCOORD_0": 118,
            "TEXCOORD_1": 119
          },
          "indices": 120,
          "material": 24,
          "mode": 4
        }
      ]
    },
    {
      "name": "Object_25",
      "primitives": [
        {
          "attributes": {
            "NORMAL": 122,
            "POSITION": 121,
            "TEXCOORD_0": 123,
            "TEXCOORD_1": 124
          },
          "indices": 125,
          "material": 25,
          "mode": 4
        }
      ]
    },
    {
      "name": "Object_26",
      "primitives": [
        {
          "attributes": {
            "NORMAL": 127,
            "POSITION": 126,
            "TEXCOORD_0": 128,
            "TEXCOORD_1": 129
          },
          "indices": 130,
          "material": 26,
          "mode": 4
        }
      ]
    },
    {
      "name": "Object_27",
      "primitives": [
        {
          "attributes": {
            "NORMAL": 132,
            "POSITION": 131,
            "TEXCOORD_0": 133
          },
          "indices": 134,
          "material": 27,
          "mode": 4
        }
      ]
    },
    {
      "name": "Object_28",
      "primitives": [
        {
          "attributes": {
            "NORMAL": 136,
            "POSITION": 135,
            "TEXCOORD_0": 137,
            "TEXCOORD_1": 138
          },
          "indices": 139,
          "material": 28,
          "mode": 4
        }
      ]
    },
    {
      "name": "Object_29",
      "primitives": [
        {
          "attributes": {
            "NORMAL": 141,
            "POSITION": 140,
            "TEXCOORD_0": 142,
            "TEXCOORD_1": 143
          },
          "indices": 144,
          "material": 29,
          "mode": 4
        }
      ]
    }
  ],
  "nodes": [
    {
      "children": [
        1
      ],
      "matrix": [
        1.0,
        0.0,
        0.0,
        0.0,
        0.0,
        2.220446049250313e-16,
        -1.0,
        0.0,
        0.0,
        1.0,
        2.220446049250313e-16,
        0.0,
        0.0,
        0.0,
        0.0,
        1.0
      ],
      "name": "Sketchfab_model"
    },
    {
      "children": [
        2
      ],
      "name": "root"
    },
    {
      "children": [
        3
      ],
      "matrix": [
        1.0,
        0.0,
        0.0,
        0.0,
        0.0,
        2.220446049250313e-16,
        1.0,
        0.0,
        0.0,
        -1.0,
        2.220446049250313e-16,
        0.0,
        0.0,
        0.0,
        0.0,
        1.0
      ],
      "name": "GLTF_SceneRootNode"
    },
    {
      "children": [
        4
      ],
      "matrix": [
        1.0,
        0.0,
        0.0,
        0.0,
        0.0,
        2.220446049250313e-16,
        -1.0,
        0.0,
        0.0,
        1.0,
        2.220446049250313e-16,
        0.0,
        0.0,
        0.0,
        0.0,
        1.0
      ],
      "name": "Sketchfab_model_0"
    },
    {
      "children": [
        5,
        7,
        9,
        11,
        13,
        15,
        17,
        19,
        21,
        23,
        25,
        27,
        29,
        31,
        33,
        35,
        37,
        39,
        41,
        43,
        45,
        47,
        49,
        51,
        53,
        55,
        57,
        59,
        61,
        63
      ],
      "name": "2023 Porsche Mission R.obj.cleaner.materialmerger.gles_1"
    },
    {
      "children": [
        6
      ],
      "name": "Object_2_2"
    },
    {
      "mesh": 0,
      "name": "Object_6"
    },
    {
      "children": [
        8
      ],
      "name": "Object_3_3"
    },
    {
      "mesh": 1,
      "name": "Object_8"
    },
    {
      "children": [
        10
      ],
      "name": "Object_4_4"
    },
    {
      "mesh": 2,
      "name": "Object_10"
    },
    {
      "children": [
        12
      ],
      "name": "Object_5_5"
    },
    {
      "mesh": 3,
      "name": "Object_12"
    },
    {
      "children": [
        14
      ],
      "name": "Object_6_6"
    },
    {
      "mesh": 4,
      "name": "Object_14"
    },
    {
      "children": [
        16
      ],
      "name": "Object_7_7"
    },
    {
      "mesh": 5,
      "name": "Object_16"
    },
    {
      "children": [
        18
      ],
      "name": "Object_8_8"
    },
    {
      "mesh": 6,
      "name": "Object_18"
    },
    {
      "children": [
        20
      ],
      "name": "Object_9_9"
    },
    {
      "mesh": 7,
      "name": "Object_20"
    },
    {
      "children": [
        22
      ],
      "name": "Object_10_10"
    },
    {
      "mesh": 8,
      "name": "Object_22"
    },
    {
      "children": [
        24
      ],
      "name": "Object_11_11"
    },
    {
      "mesh": 9,
      "name": "Object_24"
    },
    {
      "children": [
        26
      ],
      "name": "Object_12_12"
    },
    {
      "mesh": 10,
      "name": "Object_26"
    },
    {
      "children": [
        28
      ],
      "name": "Object_13_13"
    },
    {
      "mesh": 11,
      "name": "Object_28"
    },
    {
      "children": [
        30
      ],
      "name": "Object_14_14"
    },
    {
      "mesh": 12,
      "name": "Object_30"
    },
    {
      "children": [
        32
      ],
      "name": "Object_15_15"
    },
    {
      "mesh": 13,
      "name": "Object_32"
    },
    {
      "children": [
        34
      ],
      "name": "Object_16_16"
    },
    {
      "mesh": 14,
      "name": "Object_34"
    },
    {
      "children": [
        36
      ],
      "name": "Object_17_17"
    },
    {
      "mesh": 15,
      "name": "Object_36"
    },
    {
      "children": [
        38
      ],
      "name": "Object_18_18"
    },
    {
      "mesh": 16,
      "name": "Object_38"
    },
    {
      "children": [
        40
      ],
      "name": "Object_19_19"
    },
    {
      "mesh": 17,
      "name": "Object_40"
    },
    {
      "children": [
        42
      ],
      "name": "Object_20_20"
    },
    {
      "mesh": 18,
      "name": "Object_42"
    },
    {
      "children": [
        44
      ],
      "name": "Object_21_21"
    },
    {
      "mesh": 19,
      "name": "Object_44"
    },
    {
      "children": [
        46
      ],
      "name": "Object_22_22"
    },
    {
      "mesh": 20,
      "name": "Object_46"
    },
    {
      "children": [
        48
      ],
      "name": "Object_23_23"
    },
    {
      "mesh": 21,
      "name": "Object_48"
    },
    {
      "children": [
        50
      ],
      "name": "Object_24_24"
    },
    {
      "mesh": 22,
      "name": "Object_50"
    },
    {
      "children": [
        52
      ],
      "name": "Object_25_25"
    },
    {
      "mesh": 23,
      "name": "Object_52"
    },
    {
      "children": [
        54
      ],
      "name": "Object_26_26"
    },
    {
      "mesh": 24,
      "name": "Object_54"
    },
    {
      "children": [
        56
      ],
      "name": "Object_27_27"
    },
    {
      "mesh": 25,
      "name": "Object_56"
    },
    {
      "children": [
        58
      ],
      "name": "Object_28_28"
    },
    {
      "mesh": 26,
      "name": "Object_58"
    },
    {
      "children": [
        60
      ],
      "name": "Object_29_29"
    },
    {
      "mesh": 27,
      "name": "Object_60"
    },
    {
      "children": [
        62
      ],
      "name": "Object_30_30"
    },
    {
      "mesh": 28,
      "name": "Object_62"
    },
    {
      "children": [
        64
      ],
      "name": "Object_31_31"
    },
    {
      "mesh": 29,
      "name": "Object_64"
    }
  ],
  "samplers": [
    {
      "magFilter": 9729,
      "minFilter": 9987,
      "wrapS": 10497,
      "wrapT": 10497
    }
  ],
  "scene": 0,
  "scenes": [
    {
      "name": "Sketchfab_Scene",
      "nodes": [
        0
      ]
    }
  ],
  "textures": [
    {
      "sampler": 0,
      "source": 0
    },
    {
      "sampler": 0,
      "source": 1
    },
    {
      "sampler": 0,
      "source": 2
    },
    {
      "sampler": 0,
      "source": 3
    },
    {
      "sampler": 0,
      "source": 4
    },
    {
      "sampler": 0,
      "source": 5
    },
    {
      "sampler": 0,
      "source": 6
    },
    {
      "sampler": 0,
      "source": 7
    },
    {
      "sampler": 0,
      "source": 8
    },
    {
      "sampler": 0,
      "source": 9
    },
    {
      "sampler": 0,
      "source": 10
    },
    {
      "sampler": 0,
      "source": 11
    },
    {
      "sampler": 0,
      "source": 12
    },
    {
      "sampler": 0,
      "source": 13
    },
    {
      "sampler": 0,
      "source": 14
    },
    {
      "sampler": 0,
      "source": 15
    },
    {
      "sampler": 0,
      "source": 16
    },
    {
      "sampler": 0,
      "source": 17
    },
    {
      "sampler": 0,
      "source": 18
    },
    {
      "sampler": 0,
      "source": 19
    },
    {
      "sampler": 0,
      "source": 20
    },
    {
      "sampler": 0,
      "source": 21
    },
    {
      "sampler": 0,
      "source": 22
    },
    {
      "sampler": 0,
      "source": 23
    },
    {
      "sampler": 0,
      "source": 24
    },
    {
      "sampler": 0,
      "source": 25
    }
  ]
}
